<svg xmlns="http://www.w3.org/2000/svg" xmlns:xlink="http://www.w3.org/1999/xlink" viewBox="0,0,256,256" width="100px" height="100px"><g fill="#e53939" fill-rule="nonzero" stroke="none" stroke-width="1" stroke-linecap="butt" stroke-linejoin="miter" stroke-miterlimit="10" stroke-dasharray="" stroke-dashoffset="0" font-family="none" font-weight="none" font-size="none" text-anchor="none" style="mix-blend-mode: normal"><g transform="scale(8,8)"><path d="M16,5c-7.732,0 -14,4.253 -14,9.5c0,4.78504 5.21779,8.73266 12,9.39258v2.10742h4v-2.10742c1.32391,-0.12882 2.58646,-0.38039 3.76367,-0.74219l1.56641,2.84961h4.66992l-2.69922,-4.41406c2.87736,-1.73989 4.69922,-4.26476 4.69922,-7.08594c0,-5.247 -6.268,-9.5 -14,-9.5zM17.5,8c5.799,0 10.5,3.134 10.5,7c0,2.13013 -1.43193,4.03448 -3.68359,5.31836c-0.22712,-0.1878 -0.47731,-0.34244 -0.75,-0.45898c1.96761,-0.48092 3.43359,-2.24375 3.43359,-4.35937c0,-2.485 -2.015,-4.5 -4.5,-4.5h-8.5v10.59375c-4.07588,-0.96178 -7,-3.54699 -7,-6.59375c0,-3.866 4.701,-7 10.5,-7zM18,14h3.5c0.828,0 1.5,0.672 1.5,1.5c0,0.828 -0.672,1.5 -1.5,1.5h-3.5zM18,20h1.12891c0.558,0 1.06989,0.30397 1.33789,0.79297l0.45117,0.82031c-0.92156,0.21168 -1.90045,0.33713 -2.91797,0.36914z"></path></g></g></svg>