<svg id="visual" viewBox="0 0 900 600" width="900" height="600" xmlns="http://www.w3.org/2000/svg" xmlns:xlink="http://www.w3.org/1999/xlink" version="1.1"><rect x="0" y="0" width="900" height="600" fill="#e53939"></rect><path d="M0 354L7.8 346.8C15.7 339.7 31.3 325.3 47.2 318.7C63 312 79 313 94.8 326.8C110.7 340.7 126.3 367.3 142 372.5C157.7 377.7 173.3 361.3 189.2 351.2C205 341 221 337 236.8 340.7C252.7 344.3 268.3 355.7 284.2 361.2C300 366.7 316 366.3 331.8 357.8C347.7 349.3 363.3 332.7 379 322.7C394.7 312.7 410.3 309.3 426.2 307.3C442 305.3 458 304.7 473.8 303.2C489.7 301.7 505.3 299.3 521 305.2C536.7 311 552.3 325 568.2 335.8C584 346.7 600 354.3 615.8 350.2C631.7 346 647.3 330 663.2 322.3C679 314.7 695 315.3 710.8 320.5C726.7 325.7 742.3 335.3 758 337.8C773.7 340.3 789.3 335.7 805.2 341.3C821 347 837 363 852.8 367.5C868.7 372 884.3 365 892.2 361.5L900 358L900 601L892.2 601C884.3 601 868.7 601 852.8 601C837 601 821 601 805.2 601C789.3 601 773.7 601 758 601C742.3 601 726.7 601 710.8 601C695 601 679 601 663.2 601C647.3 601 631.7 601 615.8 601C600 601 584 601 568.2 601C552.3 601 536.7 601 521 601C505.3 601 489.7 601 473.8 601C458 601 442 601 426.2 601C410.3 601 394.7 601 379 601C363.3 601 347.7 601 331.8 601C316 601 300 601 284.2 601C268.3 601 252.7 601 236.8 601C221 601 205 601 189.2 601C173.3 601 157.7 601 142 601C126.3 601 110.7 601 94.8 601C79 601 63 601 47.2 601C31.3 601 15.7 601 7.8 601L0 601Z" fill="#f87d77"></path><path d="M0 357L7.8 357.5C15.7 358 31.3 359 47.2 362.5C63 366 79 372 94.8 375.2C110.7 378.3 126.3 378.7 142 385.8C157.7 393 173.3 407 189.2 399.7C205 392.3 221 363.7 236.8 350.7C252.7 337.7 268.3 340.3 284.2 352C300 363.7 316 384.3 331.8 384C347.7 383.7 363.3 362.3 379 364.7C394.7 367 410.3 393 426.2 393.7C442 394.3 458 369.7 473.8 371.7C489.7 373.7 505.3 402.3 521 410.3C536.7 418.3 552.3 405.7 568.2 399.3C584 393 600 393 615.8 392.2C631.7 391.3 647.3 389.7 663.2 380.3C679 371 695 354 710.8 361.7C726.7 369.3 742.3 401.7 758 408.8C773.7 416 789.3 398 805.2 384.2C821 370.3 837 360.7 852.8 369.8C868.7 379 884.3 407 892.2 421L900 435L900 601L892.2 601C884.3 601 868.7 601 852.8 601C837 601 821 601 805.2 601C789.3 601 773.7 601 758 601C742.3 601 726.7 601 710.8 601C695 601 679 601 663.2 601C647.3 601 631.7 601 615.8 601C600 601 584 601 568.2 601C552.3 601 536.7 601 521 601C505.3 601 489.7 601 473.8 601C458 601 442 601 426.2 601C410.3 601 394.7 601 379 601C363.3 601 347.7 601 331.8 601C316 601 300 601 284.2 601C268.3 601 252.7 601 236.8 601C221 601 205 601 189.2 601C173.3 601 157.7 601 142 601C126.3 601 110.7 601 94.8 601C79 601 63 601 47.2 601C31.3 601 15.7 601 7.8 601L0 601Z" fill="#f05e58"></path><path d="M0 458L7.8 458.3C15.7 458.7 31.3 459.3 47.2 459.3C63 459.3 79 458.7 94.8 460.8C110.7 463 126.3 468 142 464C157.7 460 173.3 447 189.2 434C205 421 221 408 236.8 411C252.7 414 268.3 433 284.2 439.8C300 446.7 316 441.3 331.8 437.5C347.7 433.7 363.3 431.3 379 424C394.7 416.7 410.3 404.3 426.2 410C442 415.7 458 439.3 473.8 452.5C489.7 465.7 505.3 468.3 521 461.2C536.7 454 552.3 437 568.2 430.3C584 423.7 600 427.3 615.8 431.7C631.7 436 647.3 441 663.2 438.2C679 435.3 695 424.7 710.8 425.5C726.7 426.3 742.3 438.7 758 435.2C773.7 431.7 789.3 412.3 805.2 406C821 399.7 837 406.3 852.8 411.3C868.7 416.3 884.3 419.7 892.2 421.3L900 423L900 601L892.2 601C884.3 601 868.7 601 852.8 601C837 601 821 601 805.2 601C789.3 601 773.7 601 758 601C742.3 601 726.7 601 710.8 601C695 601 679 601 663.2 601C647.3 601 631.7 601 615.8 601C600 601 584 601 568.2 601C552.3 601 536.7 601 521 601C505.3 601 489.7 601 473.8 601C458 601 442 601 426.2 601C410.3 601 394.7 601 379 601C363.3 601 347.7 601 331.8 601C316 601 300 601 284.2 601C268.3 601 252.7 601 236.8 601C221 601 205 601 189.2 601C173.3 601 157.7 601 142 601C126.3 601 110.7 601 94.8 601C79 601 63 601 47.2 601C31.3 601 15.7 601 7.8 601L0 601Z" fill="#e53939"></path><path d="M0 516L7.8 508.2C15.7 500.3 31.3 484.7 47.2 479.8C63 475 79 481 94.8 479.3C110.7 477.7 126.3 468.3 142 466.7C157.7 465 173.3 471 189.2 478C205 485 221 493 236.8 488.5C252.7 484 268.3 467 284.2 464.8C300 462.7 316 475.3 331.8 481.3C347.7 487.3 363.3 486.7 379 489.3C394.7 492 410.3 498 426.2 500C442 502 458 500 473.8 491.7C489.7 483.3 505.3 468.7 521 466.3C536.7 464 552.3 474 568.2 474.2C584 474.3 600 464.7 615.8 461.2C631.7 457.7 647.3 460.3 663.2 469.2C679 478 695 493 710.8 497C726.7 501 742.3 494 758 488.8C773.7 483.7 789.3 480.3 805.2 480.3C821 480.3 837 483.7 852.8 483.3C868.7 483 884.3 479 892.2 477L900 475L900 601L892.2 601C884.3 601 868.7 601 852.8 601C837 601 821 601 805.2 601C789.3 601 773.7 601 758 601C742.3 601 726.7 601 710.8 601C695 601 679 601 663.2 601C647.3 601 631.7 601 615.8 601C600 601 584 601 568.2 601C552.3 601 536.7 601 521 601C505.3 601 489.7 601 473.8 601C458 601 442 601 426.2 601C410.3 601 394.7 601 379 601C363.3 601 347.7 601 331.8 601C316 601 300 601 284.2 601C268.3 601 252.7 601 236.8 601C221 601 205 601 189.2 601C173.3 601 157.7 601 142 601C126.3 601 110.7 601 94.8 601C79 601 63 601 47.2 601C31.3 601 15.7 601 7.8 601L0 601Z" fill="#c73032"></path><path d="M0 550L7.8 547.2C15.7 544.3 31.3 538.7 47.2 536.7C63 534.7 79 536.3 94.8 534.8C110.7 533.3 126.3 528.7 142 527.2C157.7 525.7 173.3 527.3 189.2 524.2C205 521 221 513 236.8 517.5C252.7 522 268.3 539 284.2 541.5C300 544 316 532 331.8 524C347.7 516 363.3 512 379 512.5C394.7 513 410.3 518 426.2 518.2C442 518.3 458 513.7 473.8 514.8C489.7 516 505.3 523 521 525.7C536.7 528.3 552.3 526.7 568.2 526.7C584 526.7 600 528.3 615.8 531.5C631.7 534.7 647.3 539.3 663.2 536C679 532.7 695 521.3 710.8 516.3C726.7 511.3 742.3 512.7 758 513.2C773.7 513.7 789.3 513.3 805.2 515C821 516.7 837 520.3 852.8 525.5C868.7 530.7 884.3 537.3 892.2 540.7L900 544L900 601L892.2 601C884.3 601 868.7 601 852.8 601C837 601 821 601 805.2 601C789.3 601 773.7 601 758 601C742.3 601 726.7 601 710.8 601C695 601 679 601 663.2 601C647.3 601 631.7 601 615.8 601C600 601 584 601 568.2 601C552.3 601 536.7 601 521 601C505.3 601 489.7 601 473.8 601C458 601 442 601 426.2 601C410.3 601 394.7 601 379 601C363.3 601 347.7 601 331.8 601C316 601 300 601 284.2 601C268.3 601 252.7 601 236.8 601C221 601 205 601 189.2 601C173.3 601 157.7 601 142 601C126.3 601 110.7 601 94.8 601C79 601 63 601 47.2 601C31.3 601 15.7 601 7.8 601L0 601Z" fill="#aa272a"></path></svg>